<svg xmlns="http://www.w3.org/2000/svg" xmlns:xlink="http://www.w3.org/1999/xlink" width="546.47" height="486.03" viewBox="0 0 546.47 486.03">
  <defs>
    <clipPath id="clip-path" transform="translate(0 0)">
      <rect width="546.47" height="486.03" fill="none"/>
    </clipPath>
    <clipPath id="clip-path-2" transform="translate(0 0)">
      <rect width="546.47" height="486.03" fill="none"/>
    </clipPath>
  </defs>
  <g id="Laag_2" data-name="Laag 2">
    <g id="Laag_1-2" data-name="Laag 1">
      <g id="Illustratie_7" data-name="Illustratie 7">
        <g clip-path="url(#clip-path)">
          <g clip-path="url(#clip-path-2)">
            <path d="M227.85,240a3.67,3.67,0,1,0-3.2,4.08,3.66,3.66,0,0,0,3.2-4.08" transform="translate(0 0)" fill="#fffbed"/>
            <path d="M306.74,232.15s6.35,7.85-3.14,2.83-1.69,10.26-1.69,10.26-21.82,13.07-36.83,10.36-35.2-23.85-38.07-27.13-15-17.84-6.93-23.68c9.42-6.84,26.57,5.08,35.78,12.76s16.32,21.71,16.32,21.71l31.37-3" transform="translate(0 0)" fill="#69c1c6"/>
            <path d="M164.26,324.77s-16.21,1-17.34-10.1-14.48-23-14.48-23-20.29-14.33-26.6-28.83,15.7-48.5,18.43-52.1,14.56-18.4,22.6-12c13.38,10.7.38,28-5.51,39s-16.18,18.12-16.18,18.12l37.49,50" transform="translate(0 0)" fill="#69c1c6"/>
            <path d="M221,203.56l-5.53-6-44.86,0-6,5.79-7.82-1.7s-22.3,14.46-13.58,57.17c4.2,20.56,7.89,29.92,10.82,35,3.16,5.52,8.4,2.73,1.91,12.32l-6.47,21.32,40.38,3,1.41-8.36L193,330.6,228,327.77l-11.53-24c-3.64-9.27,3.36-.17,14.64-42.27S221,203.56,221,203.56" transform="translate(0 0)" fill="#3db6ba"/>
            <path d="M168.5,374.48C141,389.86,101.87,401.4,101.87,401.4l-1,29.78-4.58,43.5L96.27,486,71,485.86c4.15-.95,10.53-6.53,10.53-6.53l3.53-44.26s3.06-33.81-1.56-36.48,71.11-87.9,91.27-89.28c0,0,21.17,49.8-6.31,65.17" transform="translate(0 0)" fill="#3db6ba"/>
            <path d="M204.57,371.47c27.47,15.37,66.63,26.91,66.63,26.91l.95,29.78,4.58,43.5L276.8,483l25.23-.18c-4.15-.95-10.53-6.52-10.53-6.52L288,432.05s-3.06-33.8,1.56-36.48-71.11-87.89-91.27-89.27c0,0-21.17,49.79,6.31,65.17" transform="translate(0 0)" fill="#3db6ba"/>
            <path d="M220.44,298c-3.6-3.92-58.33-5.56-62.16-1.87-4.67,4.52-17.05,36.4-17.05,36.4s13.12-3.85,22.15.66c6.7,3.35,18.39,11.61,18,23.68l2.74.09,5.88.18,2.72,0C204.82,323.53,233,331.91,233,331.91l3.24,1.68S224.83,302.83,220.44,298" transform="translate(0 0)" fill="#1a1f3d"/>
            <path d="M218.51,293.37c-.2,6.49-14.92,11.32-32.88,10.78s-32.37-6.25-32.18-12.74,14.92-11.32,32.88-10.78,32.37,6.24,32.18,12.74" transform="translate(0 0)" fill="#3db6ba"/>
            <rect x="182.43" y="303.78" width="10.7" height="13.26" rx="3.41" transform="translate(-128.15 488.75) rotate(-88.27)" fill="none" stroke="#fff" stroke-width="3.14"/>
            <path d="M124.9,140.35c.69-3.74-.85-6-4.59-6.64q5.61,1,6.64-4.6-1,5.63,4.59,6.64-5.61-1-6.64,4.6" transform="translate(0 0)" fill="#fffbed"/>
            <path d="M172.31,146.41,110.75,191.6c.07,11,13.28-.68,23.69,7.07,13,9.68,32.35,15.76,54,15.63H188c21.6-.13,40.9-6.44,53.77-16.27,10.31-7.88,23.67,3.68,23.6-7.35l-62.1-44.45" transform="translate(0 0)" fill="#fff"/>
            <path d="M98.89,165.71c-4.67,10.88-7.32,24.08,2.21,31.31,16.72,12.68,42.66-27.29,86.81-27.54,44.43-.27,70.56,39.39,87.13,26.51,9.16-7.12,6.8-19.71,2.28-30.33a46.19,46.19,0,0,0,5.33-22.14c-.13-21.13-13.52-38.17-29.91-38.08A25.17,25.17,0,0,0,236.29,112a0,0,0,0,1,0,0c-.06.06-.14.12-.19.18-1.61,1.39-12.29,10.19-25.26,9.65a93.54,93.54,0,0,0-46.57.31c-12.49.15-22.73-8.11-24.24-9.4l-.17-.15a0,0,0,0,0,0,0,25.13,25.13,0,0,0-16.52-6.34c-16.39.11-29.58,17.31-29.45,38.43a46.5,46.5,0,0,0,5,21.07" transform="translate(0 0)" fill="#3db6ba"/>
            <path d="M288,136.63c2.16,16.36-9,32.53-20.39,34s-22.38-10.55-24.53-26.91,5.35-30.83,16.74-32.34,26,8.84,28.18,25.21" transform="translate(0 0)" fill="#e65162"/>
            <path d="M270.14,118.51c-.66,0-11.61,8.54-5.29,24.76,1.9,4.84,7.72,11,6.38,13.21C271,156.85,284,151,283.9,136c-.07-12.81-13.76-17.5-13.76-17.5" transform="translate(0 0)" fill="#1a1f3d"/>
            <path d="M87.4,137.83c-2,16.38,9.39,32.43,20.82,33.78s22.24-10.81,24.2-27.2-5.71-30.76-17.13-32.12-25.92,9.15-27.89,25.54" transform="translate(0 0)" fill="#e65162"/>
            <path d="M108.3,117.89c.65,0,11.7,8.4,5.56,24.7-1.82,4.86-7.59,11.1-6.21,13.27.24.37-12.84-5.35-12.93-20.32-.07-12.8,13.58-17.65,13.58-17.65" transform="translate(0 0)" fill="#1a1f3d"/>
            <path d="M104.36,138.83a4.93,4.93,0,1,0-6.29-3,4.93,4.93,0,0,0,6.29,3" transform="translate(0 0)" fill="#fff"/>
            <path d="M274.32,137a4.92,4.92,0,1,0-6.28-3,4.93,4.93,0,0,0,6.28,3" transform="translate(0 0)" fill="#fff"/>
            <path d="M104.29,192.68c5.22,0,10.16-3.86,16.82-9,12.29-9.53,30.84-23.9,66.74-24.25,35.92-.07,54.64,14.07,67,23.46,7.19,5.44,12.44,9.36,18,8.75a1.47,1.47,0,0,0,1.3-1.6,1.44,1.44,0,0,0-1.61-1.28c-4.45.5-9.31-3.15-16-8.18-12.65-9.57-31.71-24-68.25-24h-1.09c-36.53.51-55.41,15.14-68,24.85-6.59,5.12-11.38,8.82-15.86,8.37a1.45,1.45,0,1,0-.3,2.89,8.32,8.32,0,0,0,1.12.05" transform="translate(0 0)" fill="#1a1f3d"/>
            <path d="M207.09,145.56c.64,3.16,2,5.53,3.09,5.32s1.36-3,.71-6.11-2-5.54-3.09-5.31-1.37,2.95-.71,6.1" transform="translate(0 0)" fill="#1a1f3d"/>
            <path d="M168.45,145.79c-.61,3.16-2,5.56-3,5.35s-1.41-2.93-.79-6.1,2-5.55,3-5.35,1.4,2.94.79,6.1" transform="translate(0 0)" fill="#1a1f3d"/>
            <path d="M273.14,235.11l11.31,17.78L327,222.55c-3.07-3.39-4.89-7.84-6.51-11.81Z" transform="translate(0 0)" fill="#dde0f1"/>
            <path d="M272.47,240.44l5.12,7.16,42.57-30.33c-3.07-3.39,1.29,2.77-.32-1.2Z" transform="translate(0 0)" fill="#fff"/>
            <path d="M105.23,333.13s-.1,0-.16.06c-5.53,3.2-7.54,10-4.49,15.2A11.23,11.23,0,0,0,116,352.12h0l170-99.77L274.2,234Z" transform="translate(0 0)" fill="#b1bade"/>
            <path d="M85.67,72c3.23-.71,4.52-7.64,11.83-7,.61,0-9.39-4.91-14.2-3.85A5.53,5.53,0,1,0,85.67,72" transform="translate(0 0)" fill="#fce543"/>
            <path d="M289,72c-3.23-.71-4.51-7.64-11.82-7-.61,0,9.39-4.91,14.2-3.85A5.53,5.53,0,1,1,289,72" transform="translate(0 0)" fill="#fce543"/>
            <path d="M527.66,18.12c-4.22-1.42-4.94-10.89-14.82-11-.83,0,13.28-5.2,19.57-3.09a7.45,7.45,0,1,1-4.75,14.12" transform="translate(0 0)" fill="#3b4a95"/>
            <path d="M538.49,41c-1-2.27,2.56-6.2-1.18-10.3-.31-.34,7.23,3.44,8.78,6.82a4.18,4.18,0,1,1-7.6,3.48" transform="translate(0 0)" fill="#3b4a95"/>
            <path d="M279.94,350.78c-.82-3.22-7.83-4.27-7.39-11.63,0-.61-4.6,9.6-3.37,14.39a5.55,5.55,0,0,0,10.76-2.76" transform="translate(0 0)" fill="#3b4a95"/>
            <path d="M.61,7.34C2,5.05,7.57,5.78,8.85,0,9-.46,10.28,8.41,8.29,11.83A4.45,4.45,0,0,1,.61,7.34" transform="translate(0 0)" fill="#fce543"/>
            <path d="M65.85,452c.58-6.78-12.25-13.53-6.44-27.46.48-1.17-15.36,15.44-16.23,25.52A11.38,11.38,0,1,0,65.85,452" transform="translate(0 0)" fill="#0d0c13"/>
            <path d="M148.71,301.46c3.4-5.29,10.13-9,16-10.62a37.83,37.83,0,0,1,7.81-1.63,18.12,18.12,0,0,0,8-2.29c2.5-1.45,4.16-4,7.52-3.58,5,.69,5.87,3.58,6,5.64.19,2.42-3,5.39-4.93,6-2.76.93-5.46.73-8.18,1.85-3.62,1.49-8.41,3.89-8,8.6.39,4.55,5.79,8.81,8.53,12.07,1.61,1.93,3.07,3.94,4.67,5.84,2.09,2.5,7.5,6.27,7.29,9.89-.16,3-3.69,4.07-6.17,3.91-4-.26-6.58-2.45-7.64-6.45-.84-3.16-.26-5.17-2.58-7.89-1.85-2.15-5.19-3.67-5.55.5a76.62,76.62,0,0,0,3.61,27.77c.83,2.54,1.55,7.68-.93,9.78-.38.33-5.83,3.88-10.2-.54a11,11,0,0,1-2.74-7.61c0-5,1.35-10.58,0-15.58-.68-2.53-2.27-5.85-5.32-5.92-3.23-.06-4.78,3.7-6.52,5.84a33.07,33.07,0,0,0-4.24,7.42c-1.88,4.21-3.15,11.56-9.21,7-4.7-3.52-4.21-10.67-1.41-15.32a47.3,47.3,0,0,0,4.39-8.07,72.58,72.58,0,0,0,2.82-9.57c.69-3,2.24-5.67,3.46-8.42A22.2,22.2,0,0,0,147,306.2a12.77,12.77,0,0,1,1.67-4.74" transform="translate(0 0)" fill="#e65162"/>
            <path d="M296.56,268.35a34.38,34.38,0,0,0,11.12-16.05,37.93,37.93,0,0,0,1.82-7.89,18.4,18.4,0,0,1,2.49-8.06c1.53-2.5,4.19-4.13,3.8-7.55-.6-5.13-3.51-6-5.59-6.24-2.45-.24-5.53,2.91-6.25,4.88-1,2.77-.86,5.52-2.05,8.25-1.59,3.64-4.13,8.45-8.89,7.94s-8.82-6.06-12.07-8.91c-1.92-1.67-3.93-3.19-5.82-4.86-2.49-2.18-6.19-7.75-9.88-7.61-3,.11-4.2,3.66-4.09,6.18.17,4.06,2.34,6.73,6.37,7.89,3.19.91,5.25.37,8,2.78,2.14,1.92,3.62,5.34-.62,5.62a77.79,77.79,0,0,1-28.09-4.25c-2.57-.91-7.76-1.74-9.95.73-.33.38-4.06,5.83.34,10.35a11,11,0,0,0,7.65,2.94c5.06.1,10.76-1.14,15.81.31,2.55.74,5.89,2.43,5.89,5.52,0,3.28-3.85,4.78-6.06,6.49a33.74,33.74,0,0,1-7.61,4.15c-4.33,1.81-11.8,2.94-7.31,9.19C249,285,256.26,284.64,261,281.9a49.13,49.13,0,0,1,8.28-4.28,75.28,75.28,0,0,1,9.77-2.65c3.08-.64,13-3,17.48-6.62" transform="translate(0 0)" fill="#e65162"/>
            <path d="M369.1,198c-.77-3.3-5.67-3-8-5.47a11.54,11.54,0,0,1-1.91-2.67c-11.12,4.94-20.89-1-27.63,2a19.1,19.1,0,0,0,15.28,35,52.62,52.62,0,0,0,22.71-18.32,3,3,0,0,1,0-.31c-.24-3.58.33-6.91-.43-10.21" transform="translate(0 0)" fill="#768fc6"/>
            <path d="M378.66,168.2c-6.71,12.81-13.3,18.9-19.47,21.64a11.54,11.54,0,0,0,1.91,2.67c2.33,2.45,7.23,2.17,8,5.47s.19,6.63.43,10.21c0,.1,0,.21,0,.31,12.84-18.65,9.32-40.7,9.11-40.3" transform="translate(0 0)" fill="#3b4a95"/>
            <path d="M375.46,186.12,369,190.87V219h0a3.22,3.22,0,1,0,6.43,0h0Z" transform="translate(0 0)" fill="#3b4a95"/>
            <path d="M372.24,227.25a2.7,2.7,0,1,0,2.7,2.7,2.69,2.69,0,0,0-2.7-2.7" transform="translate(0 0)" fill="#3b4a95"/>
          </g>
        </g>
      </g>
    </g>
  </g>
</svg>